<svg width="46" height="46" viewBox="0 0 46 46" fill="none" xmlns="http://www.w3.org/2000/svg">
<path d="M44.0833 9.58333H38.3333V1.91667C38.3333 0.858667 37.4747 0 36.4167 0H5.75C2.57887 0 0 2.57887 0 5.75V40.25C0 43.4211 2.57887 46 5.75 46H40.25C43.4211 46 46 43.4211 46 40.25V11.5C46 10.442 45.1413 9.58333 44.0833 9.58333ZM5.75 42.1667C4.69296 42.1667 3.83333 41.307 3.83333 40.25V5.75C3.83333 4.69296 4.69296 3.83333 5.75 3.83333H34.5V11.5V40.25C34.5 40.9227 34.6227 41.5658 34.8354 42.1667H5.75ZM42.1667 40.25C42.1667 41.307 41.307 42.1667 40.25 42.1667C39.193 42.1667 38.3333 41.307 38.3333 40.25V13.4167H42.1667V40.25Z" />
</svg>
