<svg width="54" height="54" viewBox="0 0 54 54" fill="none" xmlns="http://www.w3.org/2000/svg">
<path d="M43.3041 6.0752V33.4357C43.3041 38.6487 41.9201 42.5919 39.1519 45.2652C36.3838 47.9385 32.3279 49.2752 26.9843 49.2752C21.6407 49.2752 17.5849 47.9385 14.8167 45.2652C12.0486 42.5919 10.6646 38.6487 10.6646 33.4357V6.0752H20.2009V30.6133C20.2009 34.0475 20.7332 36.4329 21.7979 37.7696C23.2299 39.0639 25.0813 39.7791 26.9996 39.7791C28.9178 39.7791 30.7692 39.0639 32.2012 37.7696C33.2659 36.4329 33.7982 34.0475 33.7982 30.6133V6.0752H43.3346H43.3041Z" fill="url(#paint0_linear_905_57)"/>
<defs>
<linearGradient id="paint0_linear_905_57" x1="8.52844" y1="6.07519" x2="47.6111" y2="8.86932" gradientUnits="userSpaceOnUse">
<stop stop-color="#B283E3"/>
<stop offset="1" stop-color="#8C35C4"/>
</linearGradient>
</defs>
</svg>
